# xmcd
#
# Track frame offsets:
#  150
#  14896
#  26965
#  45872
#  59862
#
# Disc length: 1085 seconds
#
# Revision: 0
# Processed by: cddbd v1.5.2PL0 Copyright (c) Steve Scherf et al.
# Submitted via: Collectorz.com_Music_Collector 6.11
#
DISCID=45043b05
DTITLE=Nozzle - Red Rorry, Rerrow Rorry
DYEAR=2000
DGENRE=Melodic Punk
TTITLE0=Hypocrite
TTITLE1=She's Gone
TTITLE2=Show Your Colours
TTITLE3=Answer Your Critics
TTITLE4=This Time
EXTD=
EXTT0=
EXTT1=
EXTT2=
EXTT3=
EXTT4=
PLAYORDER=
